PathFileType	4	(X/Y/Z)	D:\TRACE\spot_10-12-23\spot_body_baseline_4-platform.trc
DataRate	CameraRate	NumFrames	NumMarkers	Units	OrigDataRate	OrigDataStartFrame	OrigNumFrames
100.00	100.00	      43	5	mm	100.00	4376	      7000
Frame#	Time	Left_Front			Right_Front			Left_Aft			Right_Aft			Post			
		X1	Y1	Z1	X2	Y2	Z2	X3	Y3	Z3	X4	Y4	Z4	X5	Y5	Z5	

4376	43.750	-780.73346	6.47683	-641.48438	791.61481	11.03132	-634.89532	-697.78235	5.63869	496.31644	719.52863	10.09925	582.46051	1.78084	744.02155	-959.39325	
4377	43.760	-780.62732	6.33825	-641.46320	791.60095	11.06363	-634.88599	-697.76782	5.58745	496.32257	719.53961	10.10162	582.46735	1.80690	743.98627	-959.32117	
4378	43.770	-780.69348	6.39139	-641.50391	791.63629	10.98514	-634.85895	-697.76575	5.62815	496.29813	719.52789	10.13127	582.45386	1.84515	743.92041	-959.26129	
4379	43.780	-780.64252	6.37723	-641.56641	791.63373	10.99025	-634.85663	-697.78674	5.64223	496.29166	719.50433	10.09935	582.47974	1.82651	743.93542	-959.26917	
4380	43.790	-780.75995	6.46296	-641.46442	791.58752	11.03542	-634.91168	-697.84473	5.64786	496.30884	719.52100	10.10209	582.45581	1.81544	743.94812	-959.32922	
4381	43.800	-780.70001	6.41848	-641.49225	791.56207	11.08974	-634.91486	-697.81744	5.61325	496.31421	719.51367	10.07098	582.47253	1.76714	743.99091	-959.38129	
4382	43.810	-780.65302	6.41097	-641.49280	791.61084	11.09736	-634.85785	-697.82465	5.63047	496.30673	719.52393	10.08354	582.47424	1.73845	743.99139	-959.42328	
4383	43.820	-780.77039	6.48678	-641.45056	791.60834	11.06480	-634.90558	-697.79980	5.62167	496.33417	719.48004	10.07716	582.50269	1.75999	744.01758	-959.44861	
4384	43.830	-780.69769	6.42385	-641.47040	791.61542	11.09010	-634.87140	-697.79199	5.58444	496.32260	719.52582	10.06652	582.49219	1.76956	744.00586	-959.47571	
4385	43.840	-780.69220	6.41934	-641.46161	791.64423	11.07960	-634.86127	-697.79651	5.62433	496.33823	719.52539	10.05261	582.48315	1.75554	743.99487	-959.51501	
4386	43.850	-780.61798	6.31689	-641.47797	791.61139	11.06306	-634.88684	-697.78131	5.60652	496.32053	719.52216	10.08425	582.46973	1.74348	743.95862	-959.50336	
4387	43.860	-780.66614	6.37830	-641.49384	791.61591	11.07513	-634.90851	-697.81451	5.61238	496.31467	719.52179	10.09075	582.47198	1.79211	743.95337	-959.46930	
4388	43.870	-780.72620	6.36836	-641.42493	791.62708	11.04080	-634.88043	-697.78723	5.61537	496.31625	719.47687	10.09717	582.49670	1.78597	743.96204	-959.45282	
4389	43.880	-780.64136	6.32572	-641.49823	791.59338	11.00269	-634.89032	-697.80566	5.63068	496.32913	719.50940	10.09290	582.49115	1.83049	743.91772	-959.40863	
4390	43.890	-780.68579	6.37335	-641.47607	791.64026	11.05430	-634.84308	-697.79712	5.63101	496.30069	719.55603	10.06597	582.48193	1.82932	743.92725	-959.40863	
4391	43.900	-780.73315	6.40629	-641.46417	791.61664	11.06329	-634.87921	-697.82513	5.61103	496.32394	719.54926	10.06109	582.48907	1.82736	743.98566	-959.37292	
4392	43.910	-780.63910	6.40281	-641.55859	791.67401	11.04510	-634.85089	-697.80646	5.66854	496.31769	719.52136	10.05804	582.50055	1.78785	744.02533	-959.37933	
4393	43.920	-780.65503	6.39956	-641.51062	791.59705	11.11773	-634.87512	-697.82019	5.57328	496.31628	719.53961	10.08399	582.49713	1.71493	743.99573	-959.42157	
4394	43.930	-780.61499	6.34277	-641.47504	791.65753	11.09343	-634.86011	-697.76398	5.57519	496.34521	719.50958	10.04785	582.48969	1.79061	744.00647	-959.36023	
4395	43.940	-780.63354	6.38062	-641.51007	791.64886	11.06960	-634.86853	-697.81042	5.57266	496.36111	719.53156	10.07154	582.49286	1.81781	744.01123	-959.36713	
4396	43.950	-780.68146	6.39814	-641.52734	791.66992	11.01860	-634.84564	-697.78668	5.62643	496.33054	719.52039	10.12901	582.47302	1.80023	743.97162	-959.36304	
4397	43.960	-780.71069	6.43375	-641.45874	791.60046	11.05283	-634.92047	-697.81689	5.62661	496.32843	719.52631	10.11062	582.49048	1.79119	743.98273	-959.36438	
4398	43.970	-780.68427	6.37848	-641.49939	791.62531	11.05812	-634.87500	-697.82660	5.63064	496.34143	719.53613	10.07619	582.46869	1.79349	743.98157	-959.37958	
4399	43.980	-780.67316	6.37451	-641.46252	791.65674	11.03777	-634.88306	-697.77704	5.59486	496.33667	719.52094	10.09049	582.46753	1.75292	743.94458	-959.41583	
4400	43.990	-780.68634	6.36256	-641.49109	791.59766	11.02484	-634.90259	-697.80670	5.58639	496.33969	719.52094	10.07819	582.46350	1.82138	743.94965	-959.43604	
4401	44.000	-780.63324	6.34959	-641.46167	791.64374	11.02853	-634.89703	-697.80884	5.58822	496.36099	719.50720	10.08468	582.46643	1.78121	743.95477	-959.48785	
4402	44.010	-780.74786	6.45463	-641.43854	791.62946	11.05335	-634.91663	-697.78290	5.60015	496.34650	719.51196	10.05449	582.48737	1.74066	743.97766	-959.54260	
4403	44.020	-780.62726	6.38192	-641.50165	791.63947	11.05464	-634.85663	-697.77722	5.58317	496.34671	719.51678	10.07378	582.48059	1.79917	743.99994	-959.46112	
4404	44.030	-780.66760	6.44350	-641.44659	791.61072	11.11301	-634.86151	-697.82141	5.60264	496.31152	719.52222	10.06385	582.49524	1.77687	743.98322	-959.50513	
4405	44.040	-780.59436	6.30224	-641.48743	791.62793	11.04041	-634.86237	-697.79089	5.63441	496.31967	719.51300	10.07100	582.48187	1.79267	743.96710	-959.45514	
4406	44.050	-780.67633	6.36742	-641.45172	791.63428	11.02219	-634.86792	-697.79742	5.63663	496.30984	719.52698	10.11562	582.45569	1.82797	743.93298	-959.39545	
4407	44.060	-780.68494	6.34902	-641.49683	791.51807	11.11502	-634.94275	-697.78473	5.60295	496.33966	719.52844	10.16428	582.46985	1.77165	743.94537	-959.38556	
4408	44.070	-780.61609	6.41314	-641.50659	791.67651	11.14057	-634.88098	-697.78589	5.67318	496.31516	719.55804	10.05159	582.48016	1.83207	743.95959	-959.34119	
4409	44.080	-780.57385	6.26101	-641.47992	791.61823	10.92693	-634.89807	-697.79993	5.59242	496.33658	719.55670	10.10669	582.47864	1.84208	744.00952	-959.30005	
4410	44.090	-780.62933	6.24719	-641.46680	791.63068	11.02347	-634.86621	-697.87445	5.62636	496.31326	719.53296	10.06291	582.49622	1.82349	743.99469	-959.28741	
4411	44.100	-780.79175	6.49590	-641.44293	791.57697	11.14377	-634.87140	-697.84033	5.57280	496.38431	719.50342	9.98406	582.49786	1.80698	744.01550	-959.35114	
4412	44.110	-780.60852	6.36320	-641.47571	791.58728	11.16880	-634.86353	-697.79358	5.59688	496.33444	719.49365	10.05707	582.48309	1.79791	744.02814	-959.35175	
4413	44.120	-780.78711	6.51504	-641.45044	791.62958	11.02034	-634.82837	-697.84662	5.58609	496.35138	719.52643	10.14254	582.49664	1.79285	744.02155	-959.35040	
4414	44.130	-780.59259	6.30697	-641.45129	791.64331	11.07249	-634.85999	-697.80286	5.66660	496.32797	719.56104	10.12424	582.47003	1.78231	744.01984	-959.31415	
4415	44.140	-780.56586	6.23317	-641.49841	791.66400	11.08093	-634.88806	-697.82465	5.66496	496.28885	719.54559	10.08959	582.46680	1.75710	743.96869	-959.35803	
4416	44.150	-780.64301	6.33516	-641.49988	791.62671	10.91104	-634.90179	-697.82837	5.64292	496.29730	719.52112	10.12075	582.43152	1.73476	743.96442	-959.39325	
4417	44.160	-780.62579	6.31173	-641.54285	791.56067	10.96321	-634.89911	-697.82587	5.57851	496.30316	719.48639	10.06850	582.46680	1.74483	743.96234	-959.47260	
4418	44.170	-780.57135	6.29697	-641.47119	791.60522	11.05917	-634.87231	-697.79071	5.58042	496.29443	719.52039	10.06779	582.48199	1.69954	744.00842	-959.50635	
